<?xml version="1.0" standalone="no"?>
<!DOCTYPE svg PUBLIC "-//W3C//DTD SVG 20010904//EN" "http://www.w3.org/TR/2001/REC-SVG-20010904/DTD/svg10.dtd">
<!-- Created using Krita: https://krita.org -->
<svg xmlns="http://www.w3.org/2000/svg" 
    xmlns:xlink="http://www.w3.org/1999/xlink"
    xmlns:krita="http://krita.org/namespaces/svg/krita"
    xmlns:sodipodi="http://sodipodi.sourceforge.net/DTD/sodipodi-0.dtd"
    width="737.28pt"
    height="737.28pt"
    viewBox="0 0 737.28 737.28">
<defs/>
<rect id="shape0" transform="translate(200.16, 172.8)" fill="#ffffff" fill-rule="evenodd" stroke="#ffffff" stroke-width="7.2" stroke-linecap="square" stroke-linejoin="bevel" width="88.56" height="152.64"/><path id="shape1" transform="translate(30.994951740295, 439.021579364125)" fill="#ffffff" fill-rule="evenodd" stroke="#ffffff" stroke-width="7.2" stroke-linecap="square" stroke-linejoin="bevel" d="M172.103 0C177.344 48.5989 162.925 73.1384 128.845 73.6184C94.765 74.0984 79.165 52.0184 82.045 7.37839L0.685046 7.37839C-6.03494 99.5384 36.6851 145.858 128.845 146.338C221.005 146.818 262.577 98.2087 253.562 0.509117C252.536 0.649706 225.383 0.48 172.103 0Z" sodipodi:nodetypes="czcczcc"/><rect id="shape2" transform="translate(358.920000131442, 439.560000544546)" fill="#ffffff" fill-rule="evenodd" stroke="#ffffff" stroke-width="7.2" stroke-linecap="square" stroke-linejoin="bevel" width="82.08" height="134.64"/><path id="shape3" transform="translate(354.600000620938, 172.24432555695)" fill="#ffffff" fill-rule="evenodd" stroke="#ffffff" stroke-width="7.2" stroke-linecap="square" stroke-linejoin="bevel" d="M283.32 153.916C295.8 137.116 301.8 115.756 301.32 89.8357C291.24 41.3557 259.942 11.5801 207.426 0.509117L0 0L0 152.99L86.76 152.99L87.48 77.5957L187.56 77.5957C214.44 99.1957 218.76 124.396 200.52 153.196Z" sodipodi:nodetypes="cccccccccc"/><path id="shape4" transform="translate(550.188768190811, 439.477020186791)" fill="#ffffff" fill-rule="evenodd" stroke="#ffffff" stroke-width="7.2" stroke-linecap="square" stroke-linejoin="bevel" d="M0 0.0536538C11.1663 12.9779 16.2694 47.76 15.3094 104.4C34.0294 150 70.2694 160.32 124.029 135.36L124.749 118.8C107.469 113.52 98.5894 102 98.1094 84.24C97.6294 66.48 95.2294 38.4 90.9094 0Z" sodipodi:nodetypes="cccczcc"/><text id="shape5" krita:useRichText="true" krita:textVersion="2" transform="translate(49.28453125, 413.439971108588)" fill="#ffffff" stroke-opacity="0" stroke="#000000" stroke-width="0" stroke-linecap="square" stroke-linejoin="bevel" font-family="BIZ UDPGothic" font-size="90" font-size-adjust="0.541016" font-stretch="normal" font-weight="700" letter-spacing="0" word-spacing="0"><tspan x="0">J.R Portfolio</tspan></text>
</svg>
